<svg id="Layer_1" data-name="Layer 1" xmlns="http://www.w3.org/2000/svg" width="66" height="50" viewBox="0 0 189.57 144.08"><defs>
<style>
svg {background-color: rgba(124,124,124,.01);}
.cls-1{fill:#7c7c7c;}
</style>
</defs><title>3DImage</title>
<path class="cls-1" d="M135.34,55.54a19,19,0,1,0-19-19A19,19,0,0,0,135.34,55.54Zm0-30.33A11.37,11.37,0,1,1,124,36.59,11.39,11.39,0,0,1,135.34,25.21Z" transform="translate(-6.43 -3.33)"/><path class="cls-1" d="M180.83,3.33H21.59A15.18,15.18,0,0,0,6.43,18.5V132.24a15.18,15.18,0,0,0,15.17,15.17H180.83A15.18,15.18,0,0,0,196,132.24V18.5A15.18,15.18,0,0,0,180.83,3.33ZM21.59,10.92H180.83a7.59,7.59,0,0,1,7.58,7.58v84.16l-33.61-21a15.15,15.15,0,0,0-8.05-2.54,14.78,14.78,0,0,0-8,2.08L111.4,96.17a3.79,3.79,0,0,1-4.18-.36L76.39,71.21a15.16,15.16,0,0,0-18.64-.44L14,102.11V18.5A7.59,7.59,0,0,1,21.59,10.92ZM180.83,139.83H21.59A7.59,7.59,0,0,1,14,132.24v-20.8L62.23,76.89a7.12,7.12,0,0,1,4.71-1.51,7.54,7.54,0,0,1,4.68,1.74l30.87,24.62A11.36,11.36,0,0,0,115,102.82l27.45-15a7.59,7.59,0,0,1,8.2.25l37.72,23.52v20.64A7.59,7.59,0,0,1,180.83,139.83Z" transform="translate(-6.43 -3.33)"/></svg>